<?xml version="1.0" encoding="utf-8"?>
<!-- Generator: Adobe Illustrator 16.0.0, SVG Export Plug-In . SVG Version: 6.00 Build 0)  -->
<!DOCTYPE svg PUBLIC "-//W3C//DTD SVG 1.1//EN" "http://www.w3.org/Graphics/SVG/1.1/DTD/svg11.dtd">
<svg version="1.1" id="Layer_1" xmlns="http://www.w3.org/2000/svg" xmlns:xlink="http://www.w3.org/1999/xlink" x="0px" y="0px"
	 width="512px" height="512px" viewBox="0 0 512 512" enable-background="new 0 0 512 512" xml:space="preserve">
<circle fill="none" stroke="#73FFFD" stroke-width="10" stroke-miterlimit="10" cx="131.5" cy="210.719" r="68.411"/>
<ellipse fill="none" stroke="#73FFFD" stroke-width="10" stroke-miterlimit="10" cx="131.5" cy="210.719" rx="33.803" ry="68.412"/>
<line fill="none" stroke="#73FFFD" stroke-width="10" stroke-miterlimit="10" x1="131.5" y1="142.309" x2="131.5" y2="279.131"/>
<line fill="none" stroke="#73FFFD" stroke-width="10" stroke-miterlimit="10" x1="72.547" y1="245.438" x2="190.654" y2="245.438"/>
<line fill="none" stroke="#73FFFD" stroke-width="10" stroke-miterlimit="10" x1="63.089" y1="210.719" x2="199.911" y2="210.719"/>
<line fill="none" stroke="#73FFFD" stroke-width="10" stroke-miterlimit="10" x1="72.547" y1="176" x2="190.654" y2="176"/>
<g>
	<image overflow="visible" width="152" height="152" xlink:href="61962107492B596D.png"  transform="matrix(1 0 0 1 22.5 317.5)">
	</image>
	<g>
		<path fill="#85A6CD" d="M96.892,319.018H24.48v72.41c0,39.928,32.483,72.412,72.411,72.412s72.411-32.484,72.411-72.412
			C169.303,351.501,136.819,319.018,96.892,319.018z M32.617,395.428h26.527c0.26,9.56,1.451,18.566,3.398,26.72H40.291
			C35.914,414.116,33.21,405.053,32.617,395.428z M100.892,352.709v-25.037c7.438,2.404,14.736,11.359,19.664,25.037H100.892z
			 M123.015,360.709c2.032,7.842,3.34,16.822,3.619,26.719h-25.742v-26.719H123.015z M92.892,352.709H67.088v-25.691h25.804V352.709
			z M92.892,360.709v26.719H67.088v-26.719H92.892z M59.088,387.428H32.48v-26.719h26.607V387.428z M67.148,395.428h25.743v26.72
			H70.768C68.735,414.306,67.427,405.324,67.148,395.428z M92.892,430.147v25.038c-7.438-2.404-14.736-11.359-19.665-25.038H92.892z
			 M100.892,455.186v-25.038h19.664C115.628,443.826,108.329,452.781,100.892,455.186z M100.892,422.147v-26.72h25.742
			c-0.279,9.896-1.587,18.878-3.619,26.72H100.892z M134.638,395.428h26.528c-0.593,9.625-3.297,18.688-7.673,26.72H131.24
			C133.187,413.994,134.378,404.987,134.638,395.428z M134.638,387.428c-0.26-9.56-1.451-18.565-3.398-26.719h22.253
			c4.376,8.031,7.08,17.094,7.673,26.719H134.638z M148.328,352.709h-19.331c-2.917-8.984-6.839-16.587-11.488-22.287
			C129.894,334.619,140.603,342.473,148.328,352.709z M59.088,327.018v25.691H32.48v-25.691H59.088z M45.455,430.147h19.33
			c2.918,8.985,6.839,16.588,11.488,22.288C63.889,448.238,53.18,440.385,45.455,430.147z M117.51,452.436
			c4.649-5.7,8.57-13.303,11.488-22.288h19.331C140.603,440.385,129.894,448.238,117.51,452.436z"/>
	</g>
</g>
<path fill="none" stroke="#73FFFD" stroke-width="10" stroke-miterlimit="10" d="M370.379,398.365
	c0,37.783-30.629,68.412-68.411,68.412c-37.783,0-68.411-30.629-68.411-68.412"/>
<path fill="none" stroke="#73FFFD" stroke-width="10" stroke-miterlimit="10" d="M301.968,329.955"/>
<path fill="none" stroke="#73FFFD" stroke-width="10" stroke-miterlimit="10" d="M335.771,398.365
	c0,37.783-15.134,68.412-33.803,68.412c-18.67,0-33.804-30.629-33.804-68.412"/>
<path fill="none" stroke="#73FFFD" stroke-width="10" stroke-miterlimit="10" d="M301.968,329.955"/>
<line fill="none" stroke="#73FFFD" stroke-width="10" stroke-miterlimit="10" x1="301.968" y1="329.955" x2="301.968" y2="466.777"/>
<line fill="none" stroke="#73FFFD" stroke-width="10" stroke-miterlimit="10" x1="243.015" y1="433.085" x2="361.122" y2="433.085"/>
<line fill="none" stroke="#73FFFD" stroke-width="10" stroke-miterlimit="10" x1="233.557" y1="398.365" x2="370.379" y2="398.365"/>
<line fill="none" stroke="#73FFFD" stroke-width="10" stroke-miterlimit="10" x1="233.557" y1="363.646" x2="370.379" y2="363.646"/>
<line fill="none" stroke="#73FFFD" stroke-width="10" stroke-miterlimit="10" x1="268.164" y1="398.365" x2="268.164" y2="329.955"/>
<line fill="none" stroke="#73FFFD" stroke-width="10" stroke-miterlimit="10" x1="335.771" y1="329.955" x2="335.771" y2="398.365"/>
<polyline fill="none" stroke="#73FFFD" stroke-width="10" stroke-miterlimit="10" points="370.379,398.365 370.379,329.955 
	233.557,329.955 233.557,398.365 "/>
</svg>
